<?xml version="1.0" encoding="UTF-8" standalone="no"?>
<!DOCTYPE svg PUBLIC "-//W3C//DTD SVG 1.1//EN" "http://www.w3.org/Graphics/SVG/1.1/DTD/svg11.dtd">
<svg width="100%" height="100%" viewBox="0 0 43 304" version="1.1" xmlns="http://www.w3.org/2000/svg" xmlns:xlink="http://www.w3.org/1999/xlink" xml:space="preserve" xmlns:serif="http://www.serif.com/" style="fill-rule:evenodd;clip-rule:evenodd;stroke-linejoin:round;stroke-miterlimit:2;">
    <rect id="Artboard1" x="0" y="0" width="43" height="304" style="fill:none;"/>
    <clipPath id="_clip1">
        <rect x="0" y="0" width="43" height="304"/>
    </clipPath>
    <g clip-path="url(#_clip1)">
        <g>
            <path d="M43,-0L0,-0L0,67.425L43,67.425L43,-0ZM36.944,27.097L36.944,60.176L24.589,60.176L24.589,56.207L22.118,56.207L22.118,60.176L6.056,60.176L6.056,7.249L10.998,7.249L10.998,11.152L14.705,11.152L14.705,16.445L10.998,16.445L10.998,23.127L14.705,23.127L14.705,27.097L22.118,27.097L22.118,31.066L24.589,31.066L24.589,27.097L36.944,27.097ZM35.709,36.359L33.237,36.359L33.237,44.298L29.531,44.298L29.531,46.945L33.237,46.945L33.237,56.207L28.295,56.207L28.295,52.303L18.411,52.303L18.411,56.207L7.291,56.207L7.291,58.853L20.882,58.853L20.882,54.884L25.824,54.884L25.824,58.853L35.709,58.853L35.709,36.359ZM17.176,36.359L17.176,32.39L10.998,32.39L10.998,35.036L14.705,35.036L14.705,40.329L10.998,40.329L10.998,46.945L14.705,46.945L14.705,52.303L10.998,52.303L10.998,54.884L17.176,54.884L17.176,50.914L29.531,50.914L29.531,54.884L32.002,54.884L32.002,48.268L28.295,48.268L28.295,42.975L32.002,42.975L32.002,32.39L29.531,32.39L29.531,36.359L17.176,36.359ZM7.291,54.884L9.763,54.884L9.763,50.914L13.469,50.98L13.469,48.268L9.763,48.268L9.763,39.005L13.469,39.005L13.469,36.359L9.763,36.359L9.763,32.39L7.291,32.39L7.291,54.884ZM35.709,35.036L35.709,28.42L25.824,28.42L25.824,32.39L20.882,32.39L20.882,28.42L10.998,28.42L10.998,31.066L18.411,31.066L18.411,35.036L28.295,35.036L28.295,31.066L33.237,31.066L33.237,35.036L35.709,35.036ZM7.291,31.066L9.763,31.066L9.763,27.097L13.469,27.097L13.469,24.45L9.763,24.45L9.763,15.122L13.469,15.122L13.469,12.542L9.763,12.542L9.763,8.572L7.291,8.572L7.291,31.066Z"/>
            <clipPath id="_clip2">
                <path d="M43,-0L0,-0L0,67.425L43,67.425L43,-0ZM36.944,27.097L36.944,60.176L24.589,60.176L24.589,56.207L22.118,56.207L22.118,60.176L6.056,60.176L6.056,7.249L10.998,7.249L10.998,11.152L14.705,11.152L14.705,16.445L10.998,16.445L10.998,23.127L14.705,23.127L14.705,27.097L22.118,27.097L22.118,31.066L24.589,31.066L24.589,27.097L36.944,27.097ZM35.709,36.359L33.237,36.359L33.237,44.298L29.531,44.298L29.531,46.945L33.237,46.945L33.237,56.207L28.295,56.207L28.295,52.303L18.411,52.303L18.411,56.207L7.291,56.207L7.291,58.853L20.882,58.853L20.882,54.884L25.824,54.884L25.824,58.853L35.709,58.853L35.709,36.359ZM17.176,36.359L17.176,32.39L10.998,32.39L10.998,35.036L14.705,35.036L14.705,40.329L10.998,40.329L10.998,46.945L14.705,46.945L14.705,52.303L10.998,52.303L10.998,54.884L17.176,54.884L17.176,50.914L29.531,50.914L29.531,54.884L32.002,54.884L32.002,48.268L28.295,48.268L28.295,42.975L32.002,42.975L32.002,32.39L29.531,32.39L29.531,36.359L17.176,36.359ZM7.291,54.884L9.763,54.884L9.763,50.914L13.469,50.98L13.469,48.268L9.763,48.268L9.763,39.005L13.469,39.005L13.469,36.359L9.763,36.359L9.763,32.39L7.291,32.39L7.291,54.884ZM35.709,35.036L35.709,28.42L25.824,28.42L25.824,32.39L20.882,32.39L20.882,28.42L10.998,28.42L10.998,31.066L18.411,31.066L18.411,35.036L28.295,35.036L28.295,31.066L33.237,31.066L33.237,35.036L35.709,35.036ZM7.291,31.066L9.763,31.066L9.763,27.097L13.469,27.097L13.469,24.45L9.763,24.45L9.763,15.122L13.469,15.122L13.469,12.542L9.763,12.542L9.763,8.572L7.291,8.572L7.291,31.066Z"/>
            </clipPath>
            <g clip-path="url(#_clip2)">
                <rect x="-9.979" y="-0" width="62.958" height="67.425"/>
                <path d="M36.944,27.097L36.944,60.176L24.589,60.176L24.589,56.207L22.118,56.207L22.118,60.176L6.056,60.176L6.056,7.249L10.998,7.249L10.998,11.152L14.705,11.152L14.705,16.445L10.998,16.445L10.998,23.127L14.705,23.127L14.705,27.097L22.118,27.097L22.118,31.066L24.589,31.066L24.589,27.097L36.944,27.097ZM7.291,31.066L9.763,31.066L9.763,27.097L13.469,27.097L13.469,24.45L9.763,24.45L9.763,15.122L13.469,15.122L13.469,12.542L9.763,12.542L9.763,8.572L7.291,8.572L7.291,31.066ZM17.176,36.359L17.176,32.39L10.998,32.39L10.998,35.036L14.705,35.036L14.705,40.329L10.998,40.329L10.998,46.945L14.705,46.945L14.705,52.303L10.998,52.303L10.998,54.884L17.176,54.884L17.176,50.914L29.531,50.914L29.531,54.884L32.002,54.884L32.002,48.268L28.295,48.268L28.295,42.975L32.002,42.975L32.002,32.39L29.531,32.39L29.531,36.359L17.176,36.359ZM7.291,54.884L9.763,54.884L9.763,50.914L13.469,50.98L13.469,48.268L9.763,48.268L9.763,39.005L13.469,39.005L13.469,36.359L9.763,36.359L9.763,32.39L7.291,32.39L7.291,54.884ZM35.709,36.359L33.237,36.359L33.237,44.298L29.531,44.298L29.531,46.945L33.237,46.945L33.237,56.207L28.295,56.207L28.295,52.303L18.411,52.303L18.411,56.207L7.291,56.207L7.291,58.853L20.882,58.853L20.882,54.884L25.824,54.884L25.824,58.853L35.709,58.853L35.709,36.359ZM35.709,35.036L35.709,28.42L25.824,28.42L25.824,32.39L20.882,32.39L20.882,28.42L10.998,28.42L10.998,31.066L18.411,31.066L18.411,35.036L28.295,35.036L28.295,31.066L33.237,31.066L33.237,35.036L35.709,35.036Z" style="fill:#fff;fill-rule:nonzero;"/>
            </g>
            <g>
                <rect x="0" y="300.998" width="43" height="3.002"/>
                <rect x="0" y="297.996" width="43" height="1.501"/>
                <rect x="0" y="293.494" width="43" height="1.501"/>
                <rect x="0" y="281.487" width="43" height="6.004"/>
                <rect x="0" y="278.485" width="43" height="1.501"/>
                <rect x="0" y="272.482" width="43" height="4.503"/>
                <rect x="0" y="269.48" width="43" height="1.501"/>
                <rect x="0" y="264.977" width="43" height="1.501"/>
                <rect x="0" y="255.972" width="43" height="3.002"/>
                <rect x="0" y="252.97" width="43" height="1.501"/>
                <rect x="0" y="242.464" width="43" height="6.004"/>
                <rect x="0" y="239.462" width="43" height="1.501"/>
                <rect x="0" y="236.461" width="43" height="1.501"/>
                <rect x="0" y="231.958" width="43" height="1.501"/>
                <rect x="0" y="222.953" width="43" height="6.004"/>
                <rect x="0" y="219.951" width="43" height="1.501"/>
                <rect x="0" y="210.946" width="43" height="3.002"/>
                <rect x="0" y="207.944" width="43" height="1.501"/>
                <rect x="0" y="201.941" width="43" height="3.002"/>
                <rect x="0" y="194.436" width="43" height="1.501"/>
                <rect x="0" y="191.435" width="43" height="1.501"/>
                <rect x="0" y="186.932" width="43" height="1.501"/>
                <rect x="0" y="180.928" width="43" height="3.002"/>
                <rect x="0" y="177.927" width="43" height="1.501"/>
                <rect x="0" y="170.423" width="43" height="1.501"/>
                <rect x="0" y="164.419" width="43" height="3.002"/>
                <rect x="0" y="156.915" width="43" height="4.503"/>
                <rect x="0" y="153.913" width="43" height="1.501"/>
                <rect x="0" y="146.409" width="43" height="1.501"/>
                <rect x="0" y="140.405" width="43" height="3.002"/>
                <rect x="0" y="137.403" width="43" height="1.501"/>
                <rect x="0" y="132.901" width="43" height="3.002"/>
                <rect x="0" y="128.398" width="43" height="1.501"/>
                <rect x="0" y="116.391" width="43" height="6.004"/>
                <rect x="0" y="113.389" width="43" height="1.501"/>
                <rect x="0" y="108.887" width="43" height="1.501"/>
                <rect x="0" y="102.883" width="43" height="3.002"/>
                <rect x="0" y="98.381" width="43" height="1.501"/>
                <rect x="0" y="90.876" width="43" height="1.501"/>
                <rect x="0" y="86.374" width="43" height="3.002"/>
                <rect x="0" y="77.368" width="43" height="4.503"/>
                <rect x="0" y="74.367" width="43" height="1.501"/>
                <rect x="0" y="69.864" width="43" height="3.002"/>
            </g>
        </g>
    </g>
</svg>
